<?xml version="1.0" encoding="UTF-8" standalone="no"?>
<svg
   xmlns:dc="http://purl.org/dc/elements/1.1/"
   xmlns:cc="http://creativecommons.org/ns#"
   xmlns:rdf="http://www.w3.org/1999/02/22-rdf-syntax-ns#"
   xmlns:svg="http://www.w3.org/2000/svg"
   xmlns="http://www.w3.org/2000/svg"
   viewBox="0 0 1066.6667 1066.6667"
   height="1066.6667"
   width="1066.6667"
   xml:space="preserve"
   id="svg10"
   version="1.1"><metadata
     id="metadata16"><rdf:RDF><cc:Work
         rdf:about=""><dc:format>image/svg+xml</dc:format><dc:type
           rdf:resource="http://purl.org/dc/dcmitype/StillImage" /><dc:title></dc:title></cc:Work></rdf:RDF></metadata><defs
     id="defs14"><clipPath
       id="clipPath30"
       clipPathUnits="userSpaceOnUse"><path
         id="path28"
         d="M 0,800 H 800 V 0 H 0 Z" /></clipPath></defs><g
     transform="matrix(1.3333333,0,0,-1.3333333,0,1066.6667)"
     id="g18"><g
       id="g24"><g
         clip-path="url(#clipPath30)"
         id="g26"><g
           transform="translate(553.9932,306.3633)"
           id="g56" /><g
           style="fill:#163736;fill-opacity:0.43434343"
           transform="translate(454.8809,439.7363)"
           id="g118"><path
             id="path120"
             style="fill:#163736;fill-opacity:0.43434343;fill-rule:nonzero;stroke:none"
             d="M 0,0 C -1.006,-0.503 -2.279,-0.829 -3.744,-1.024 V 17.715 C 5.576,10.211 4.979,2.496 0,0 M -3.744,20.924 V 75.946 H -33.992 V 24.574 h -46.709 c -1.349,0.696 -2.713,1.445 -4.069,2.161 v 49.31 h -30.249 V 44.36 c -1.235,0.791 -2.487,1.559 -3.712,2.364 -6.325,4.157 -17.681,12.236 -24.448,17.18 l 4.599,5.844 -20.801,3.602 8.387,-19.375 4.463,5.671 c 9.535,-7.645 26.795,-20.287 38.523,-27.986 48.41,-31.777 108.348,-48.912 121.867,-42.141 7.327,3.654 5.188,19.067 -17.603,31.405" /></g><g
           transform="translate(339.8623,373.4883)"
           id="g122"><path
             id="path124"
             style="fill:#2a3f52;fill-opacity:1;fill-rule:nonzero;stroke:none"
             d="m 0,0 h 30.249 v 57 h 43.35 C 52.545,64.526 21.03,78.24 0,94.703 Z" /></g><g
           transform="translate(420.8887,373.4883)"
           id="g126"><path
             id="path128"
             style="fill:#2a3f52;fill-opacity:1;fill-rule:nonzero;stroke:none"
             d="M 0,0 H 30.248 V 47.047 C 21.914,48.183 11.525,50.7 0,54.448 Z" /></g><text
           transform="scale(1,-1)"
           id="text132"
           y="-298.95367"
           x="208.07176"
           style="font-style:normal;font-weight:normal;font-size:30px;line-height:1.25;font-family:sans-serif;letter-spacing:0px;word-spacing:0px;fill:#000000;fill-opacity:1;stroke:none;stroke-width:0.75"
           xml:space="preserve"><tspan
             style="stroke-width:0.75"
             y="-271.58377"
             x="208.07176"
             id="tspan130"></tspan></text>
<text
           transform="scale(0.86272149,-1.1591226)"
           id="text264"
           y="-318.97995"
           x="530.14148"
           style="font-style:normal;font-weight:normal;font-size:62.85273743px;line-height:1.25;font-family:sans-serif;letter-spacing:0px;word-spacing:0px;fill:#98abad;fill-opacity:1;stroke:none;stroke-width:1.57131839;"
           xml:space="preserve"><tspan
             style="stroke-width:1.57131839;fill:#98abad;fill-opacity:1;"
             y="-318.97995"
             x="530.14148"
             id="tspan262">ACH</tspan></text>
<text
           transform="scale(1,-1)"
           id="text1073"
           y="-334.82809"
           x="336.30722"
           style="font-style:normal;font-weight:normal;font-size:30px;line-height:1.25;font-family:sans-serif;letter-spacing:0px;word-spacing:0px;fill:#000000;fill-opacity:1;stroke:none;stroke-width:0.75"
           xml:space="preserve"><tspan
             style="stroke-width:0.75"
             y="-334.82809"
             x="336.30722"
             id="tspan1071">TECHNOLOGIES</tspan></text>
</g></g></g></svg>