<?xml version="1.0" encoding="UTF-8" standalone="no"?>
<!-- Created with Inkscape (http://www.inkscape.org/) -->

<svg
   xmlns:dc="http://purl.org/dc/elements/1.1/"
   xmlns:cc="http://creativecommons.org/ns#"
   xmlns:rdf="http://www.w3.org/1999/02/22-rdf-syntax-ns#"
   xmlns:svg="http://www.w3.org/2000/svg"
   xmlns="http://www.w3.org/2000/svg"
   xmlns:sodipodi="http://sodipodi.sourceforge.net/DTD/sodipodi-0.dtd"
   xmlns:inkscape="http://www.inkscape.org/namespaces/inkscape"
   version="1.1"
   id="svg815"
   xml:space="preserve"
   width="1066.6667"
   height="1066.6667"
   viewBox="0 0 1066.6667 1066.6667"
   sodipodi:docname="hach-logo1.svg"
   inkscape:version="0.92.2 (5c3e80d, 2017-08-06)"><metadata
     id="metadata821"><rdf:RDF><cc:Work
         rdf:about=""><dc:format>image/svg+xml</dc:format><dc:type
           rdf:resource="http://purl.org/dc/dcmitype/StillImage" /><dc:title></dc:title></cc:Work></rdf:RDF></metadata><defs
     id="defs819"><clipPath
       clipPathUnits="userSpaceOnUse"
       id="clipPath835"><path
         d="M 0,800 H 800 V 0 H 0 Z"
         id="path833"
         inkscape:connector-curvature="0" /></clipPath></defs><sodipodi:namedview
     pagecolor="#ffffff"
     bordercolor="#666666"
     borderopacity="1"
     objecttolerance="10"
     gridtolerance="10"
     guidetolerance="10"
     inkscape:pageopacity="0"
     inkscape:pageshadow="2"
     inkscape:window-width="1600"
     inkscape:window-height="838"
     id="namedview817"
     showgrid="false"
     inkscape:zoom="0.62718745"
     inkscape:cx="533.33337"
     inkscape:cy="533.33337"
     inkscape:window-x="-8"
     inkscape:window-y="-8"
     inkscape:window-maximized="1"
     inkscape:current-layer="g829" /><g
     id="g823"
     inkscape:groupmode="layer"
     inkscape:label="1094"
     transform="matrix(1.3333333,0,0,-1.3333333,0,1066.6667)"><g
       id="g829"><g
         id="g831"
         clip-path="url(#clipPath835)"
         transform="matrix(0.61650459,0,0,0.6153993,-44.782555,208.9356)"><g
           id="g837"
           transform="translate(275.7964,322.3721)" /><g
           id="g845"
           transform="translate(374.292,322.3721)" /><g
           id="g923"
           transform="matrix(1,0,0,1.0289435,417.7207,409.14181)"><path
             d="m 0,0 c 6.705,8.761 10.723,19.708 10.723,31.59 0,4.22 -0.518,8.31 -1.485,12.243 L -4.06,38.315 c -4.183,-1.726 -8.987,0.261 -10.723,4.445 l -8.035,19.397 c -1.736,4.186 0.253,8.976 4.43,10.716 l 5.512,2.287 c -8.182,5.347 -17.945,8.462 -28.445,8.462 -26.536,0 -48.412,-19.858 -51.608,-45.531 11.285,-8.584 26.861,-17.341 44.822,-24.63 C -30.655,6.364 -13.841,1.822 0,0"
             style="fill:#b2b4b6;fill-opacity:1;fill-rule:nonzero;stroke:none"
             id="path925"
             inkscape:connector-curvature="0" /></g><g
           id="g927"
           transform="matrix(1,0,0,1.0289435,434.9971,439.782)"><path
             d="m 0,0 -0.452,-0.958 c 11.993,-9.763 17.818,-19.813 15.156,-26.337 -5.173,-12.761 -41.914,-9.903 -82.035,6.4 -40.122,16.311 -68.442,39.868 -63.257,52.64 1.637,4.025 6.432,6.501 13.481,7.48 v 0.966 c -11.666,-0.76 -19.77,-4.215 -22.262,-10.462 -4.03,-10.062 7.438,-24.889 28.017,-38.956 3.183,-25.679 25.063,-45.559 51.607,-45.559 12.251,0 23.496,4.238 32.377,11.32 25.992,-4.691 45.792,-2.033 49.967,8.4 C 26.246,-25.93 17.132,-12.854 0,0"
             style="fill:#176086;fill-opacity:1;fill-rule:nonzero;stroke:none"
             id="path929"
             inkscape:connector-curvature="0" /></g><g
           id="g931"
           transform="matrix(1,0,0,1.0289435,433.9805,469.21637)"><path
             d="m 0,0 -6.07,14.69 c -1.334,3.172 -4.96,4.67 -8.119,3.36 l -16.138,-6.683 c -3.163,-1.32 -4.669,-4.948 -3.349,-8.118 l 6.092,-14.69 c 1.31,-3.167 4.938,-4.672 8.096,-3.363 l 16.142,6.682 C -0.188,-6.803 1.33,-3.168 0,0"
             style="fill:#176086;fill-opacity:0.875;fill-rule:nonzero;stroke:none"
             id="path933"
             inkscape:connector-curvature="0" /><path
             style="fill:#176086;fill-opacity:0.875;stroke-width:1.5944196"
             d="m 267.82493,392.06436 c -1.24656,-2.98344 -2.7201,-8.26125 -3.27453,-11.72846 -0.9939,-6.2155 -0.89938,-6.36495 6.73249,-10.64407 9.56058,-5.36054 11.53616,-4.38733 15.03768,7.40785 3.0956,10.42782 2.21381,12.75489 -6.52191,17.21152 -8.34267,4.25611 -9.33438,4.07002 -11.97373,-2.24684 z"
             id="path951"
             inkscape:connector-curvature="0"
             transform="matrix(1.3080235,0,0,-0.98839729,-378.05033,378.94021)" /><path
             style="fill:#176086;fill-opacity:0.90476194;stroke-width:1.5944196"
             d="m 268.96094,394.69859 c -0.77296,-1.53463 -2.32507,-6.19345 -3.44913,-10.35294 -2.30577,-8.53234 -1.30468,-10.80764 6.54004,-14.8643 7.96336,-4.11802 10.44165,-3.06843 13.3369,5.64836 3.65883,11.01569 2.78769,14.43064 -4.77089,18.70234 -7.7093,4.35687 -9.81988,4.51377 -11.65692,0.86654 z"
             id="path953"
             inkscape:connector-curvature="0"
             transform="matrix(1.3080235,0,0,-0.98839729,-378.05033,378.94021)" /><path
             style="fill:#176086;fill-opacity:0.90476194;stroke-width:1.5944196"
             d="m 237.34243,466.17093 c -14.8709,-3.69052 -26.45652,-17.91903 -30.96251,-38.02564 -1.14799,-5.12259 -3.77312,-9.64005 -8.60157,-14.80205 -12.77241,-13.65474 -17.51045,-29.3806 -10.7071,-35.53755 3.31644,-3.00134 6.70731,-3.65197 3.78078,-0.72544 -2.70568,2.70568 -2.37241,10.11231 0.72458,16.10309 7.57431,14.65163 28.60719,32.15794 52.3696,43.58882 33.57346,16.15047 58.06009,15.48106 58.25281,-1.59251 l 0.0565,-5.00523 2.27863,3.98605 c 3.00795,5.26185 2.98228,12.79697 -0.0584,17.13811 -3.39704,4.84996 -13.73691,7.29443 -25.51805,6.03278 -8.99571,-0.96336 -10.38939,-0.66673 -17.60699,3.74745 -8.70191,5.32196 -16.45553,6.96649 -24.00831,5.09212 z"
             id="path955"
             inkscape:connector-curvature="0"
             transform="matrix(1.3080235,0,0,-0.98839729,-378.05033,378.94021)" /><path
             style="fill:#176086;fill-opacity:0.90476194;stroke-width:1.5944196"
             d="m 234.99365,465.44359 c -15.0295,-5.37095 -24.44216,-18.14748 -29.19404,-39.62731 -0.53027,-2.39698 -4.1766,-7.97521 -8.10295,-12.39608 -12.97583,-14.61009 -17.41045,-29.47414 -10.62541,-35.61451 3.31644,-3.00134 6.70731,-3.65197 3.78078,-0.72544 -5.30181,5.30181 -0.34286,17.33876 12.76825,30.99262 26.27464,27.36231 74.32857,47.25876 92.03053,38.10472 4.94396,-2.55662 6.46231,-5.28088 6.54821,-11.74892 l 0.0565,-4.25425 2.27863,3.98605 c 3.00795,5.26185 2.98228,12.79697 -0.0584,17.13811 -3.40229,4.85745 -13.73563,7.29457 -25.5599,6.0283 -8.83236,-0.94587 -10.40842,-0.64511 -15.80289,3.01568 -5.8523,3.97148 -15.17571,7.34416 -19.96399,7.22185 -1.3154,-0.0336 -4.9853,-0.98797 -8.15535,-2.12082 z"
             id="path957"
             inkscape:connector-curvature="0"
             transform="matrix(1.3080235,0,0,-0.98839729,-378.05033,378.94021)" /><path
             style="fill:#176086;fill-opacity:0.90476194;stroke-width:1.5944196"
             d="m 234.99365,465.5157 c -13.6051,-5.03215 -23.00312,-16.54517 -27.87629,-34.14982 -1.94176,-7.01475 -4.83337,-12.39888 -9.75648,-18.16646 -12.8485,-15.0524 -16.99733,-29.32334 -10.28963,-35.39373 4.01964,-3.63772 5.52448,-3.30388 3.35765,0.74488 -9.69276,18.11109 42.66076,61.019 83.67151,68.57553 17.45313,3.21587 27.98331,-1.19497 28.09861,-11.76981 l 0.0565,-5.18187 2.27863,3.98605 c 3.00795,5.26185 2.98228,12.79697 -0.0584,17.13811 -3.32175,4.74247 -13.8834,7.34048 -25.11066,6.17685 -8.22494,-0.85246 -10.12598,-0.44812 -17.53862,3.73039 -10.14681,5.71976 -19.12305,7.16152 -26.83284,4.30988 z"
             id="path959"
             inkscape:connector-curvature="0"
             transform="matrix(1.3080235,0,0,-0.98839729,-378.05033,378.94021)" /><path
             style="fill:#176086;fill-opacity:0.90476194;stroke-width:1.5944196"
             d=""
             id="path961"
             inkscape:connector-curvature="0"
             transform="matrix(1.3080235,0,0,-0.98839729,-378.05033,378.94021)" /><path
             style="fill:#035baf;fill-opacity:0.92857139;stroke-width:1.5944196"
             d="m 236.39511,466.12546 c -13.63075,-4.32226 -23.47799,-15.5975 -28.6129,-32.7622 -2.30537,-7.70626 -5.54137,-13.86898 -10.45446,-19.90977 -13.08916,-16.09348 -16.83165,-28.41143 -10.69298,-35.19458 4.08188,-4.51043 5.47759,-3.78551 3.38508,1.75816 -5.58748,14.80293 28.37231,46.85133 64.90396,61.25092 27.93809,11.01228 43.83477,9.04237 47.17887,-5.8464 l 1.17855,-5.24717 1.82228,4.48845 c 6.46536,15.92484 -4.24103,25.20894 -26.42993,22.91884 -7.70917,-0.79565 -9.82352,-0.3349 -16.98314,3.7009 -9.06854,5.11184 -18.65754,6.94768 -25.29533,4.84285 z"
             id="path963"
             inkscape:connector-curvature="0"
             transform="matrix(1.3080235,0,0,-0.98839729,-378.05033,378.94021)" /><path
             style="fill:#035baf;fill-opacity:0.92857139;stroke-width:1.5944196"
             d="m 267.72339,391.82133 c -1.30242,-3.11712 -2.52141,-8.2658 -2.70888,-11.44151 -0.29351,-4.97218 0.4253,-6.29789 5.17618,-9.54647 3.03437,-2.07485 6.97384,-3.56294 8.75438,-3.30687 4.10166,0.58988 7.78943,8.17502 7.93673,16.32458 0.10334,5.71713 -0.46941,6.62589 -6.26394,9.93889 -8.56892,4.89924 -10.1241,4.66181 -12.89447,-1.96862 z"
             id="path965"
             inkscape:connector-curvature="0"
             transform="matrix(1.3080235,0,0,-0.98839729,-378.05033,378.94021)" /></g><g
           id="g935"
           transform="matrix(1,0,0,1.0289435,471.8086,471.44712)" /><g
           id="g939"
           transform="matrix(1,0,0,1.0289435,452.4316,498.82463)" /><g
           id="g943"
           transform="translate(479.5791,499.7988)" /><text
           xml:space="preserve"
           style="font-style:normal;font-variant:normal;font-weight:normal;font-stretch:normal;font-size:48.65860367px;line-height:1.25;font-family:'Perpetua Titling MT';-inkscape-font-specification:'Perpetua Titling MT';letter-spacing:0px;word-spacing:0px;fill:#b2b4b6;fill-opacity:1;stroke:none;stroke-width:1.216465"
           x="276.41467"
           y="-499.28571"
           id="text991"
           transform="scale(1.1231867,-0.89032393)"><tspan
             sodipodi:role="line"
             x="276.41467"
             y="-452.34015"
             style="font-style:normal;font-variant:normal;font-weight:normal;font-stretch:normal;font-family:'Perpetua Titling MT';-inkscape-font-specification:'Perpetua Titling MT';fill:#b2b4b6;fill-opacity:1;stroke-width:1.216465"
             id="tspan1001" /><tspan
             sodipodi:role="line"
             x="276.41467"
             y="-391.51688"
             style="font-style:normal;font-variant:normal;font-weight:normal;font-stretch:normal;font-family:'Patua One';-inkscape-font-specification:'Patua One';fill:#b2b4b6;fill-opacity:1;stroke-width:1.216465"
             id="tspan1005">TECHNOLOGIES</tspan></text>
</g><text
         xml:space="preserve"
         style="font-style:normal;font-variant:normal;font-weight:normal;font-stretch:normal;font-size:39.44442368px;line-height:1.25;font-family:'Microsoft Yi Baiti';-inkscape-font-specification:'Microsoft Yi Baiti';letter-spacing:0px;word-spacing:0px;fill:#000000;fill-opacity:1;stroke:none;stroke-width:0.98611069"
         x="243.40688"
         y="-465.95349"
         id="text949"
         transform="scale(1.0259982,-0.97466057)"
         inkscape:transform-center-y="-14.349776"><tspan
           sodipodi:role="line"
           id="tspan947"
           x="243.40688"
           y="-465.95349"
           style="font-style:normal;font-variant:normal;font-weight:normal;font-stretch:normal;font-size:47.33330917px;font-family:'Patua One';-inkscape-font-specification:'Patua One';fill:#035baf;fill-opacity:0.89880958;stroke-width:0.98611069">HACH</tspan></text>
</g></g></svg>